<?xml version="1.0" encoding="UTF-8" standalone="no"?>
<!DOCTYPE svg PUBLIC "-//W3C//DTD SVG 1.1//EN" "http://www.w3.org/Graphics/SVG/1.1/DTD/svg11.dtd">
<svg width="100%" height="100%" viewBox="0 0 7378 5171" version="1.1" xmlns="http://www.w3.org/2000/svg" xmlns:xlink="http://www.w3.org/1999/xlink" xml:space="preserve" xmlns:serif="http://www.serif.com/" style="fill-rule:evenodd;clip-rule:evenodd;stroke-linejoin:round;stroke-miterlimit:2;">
    <g transform="matrix(1,0,0,1,-5169.525015,-3320.307026)">
        <g transform="matrix(14.409147,0,0,14.409147,5169.524961,2216.770392)">
            <path d="M62.475,76.586C54.999,76.586 47.879,77.832 41.115,80.324C29.012,84.596 19.044,92.25 11.213,103.285C3.737,113.964 -0,125.889 -0,139.061L-0,372.939C-0,390.026 6.051,404.799 18.154,417.258C30.614,429.361 45.388,435.414 62.475,435.414C79.918,435.414 94.69,429.361 106.793,417.258C119.252,404.799 125.482,390.026 125.482,372.939L125.482,330.408C125.617,321.197 135.105,323.614 139.9,330.408C148.881,345.962 167.923,359.321 190.092,359.244C212.261,359.168 230.674,348.207 240.285,330.408C243.925,326.116 254.184,318.801 255.236,330.408L255.236,372.939C255.236,390.026 261.287,404.799 273.391,417.258C285.85,429.361 300.624,435.414 317.711,435.414C335.154,435.414 349.926,429.361 362.029,417.258C374.489,404.799 380.719,390.026 380.719,372.939L380.719,139.061C380.719,125.889 376.804,113.964 368.973,103.285C361.497,92.25 351.707,84.596 339.604,80.324C332.484,77.832 325.364,76.586 318.244,76.586C299.021,76.586 282.825,84.063 269.654,99.014L206.252,173.213C204.828,174.281 200.111,182.445 190.092,182.445C180.073,182.445 175.891,174.281 174.467,173.213L110.531,99.014C97.716,84.063 81.697,76.586 62.475,76.586Z" style="fill:white;fill-rule:nonzero;"/>
        </g>
        <g id="path5210" transform="matrix(14.409147,0,0,14.409147,5169.524961,2216.767726)">
            <path d="M457.535,76.586C442.584,76.586 429.769,81.926 419.09,92.605C408.766,102.929 403.605,115.566 403.605,130.518C403.605,145.469 408.766,158.284 419.09,168.963C429.769,179.286 442.584,184.449 457.535,184.449C472.486,184.449 485.301,179.286 495.98,168.963C506.66,158.284 512,145.469 512,130.518C512,115.566 506.66,102.929 495.98,92.605C485.301,81.926 472.486,76.586 457.535,76.586Z" style="fill:white;fill-rule:nonzero;"/>
        </g>
        <g id="path52101" serif:id="path5210" transform="matrix(14.409147,0,0,14.409147,5169.524961,2216.767726)">
            <path d="M458.068,195.127C443.117,195.127 430.302,200.467 419.623,211.146C408.944,221.826 403.605,234.641 403.605,249.592L403.605,381.482C403.605,396.434 408.944,409.248 419.623,419.928C430.302,430.251 443.117,435.414 458.068,435.414C473.019,435.414 485.657,430.251 495.98,419.928C506.66,409.248 512,396.434 512,381.482L512,249.592C512,234.641 506.66,221.826 495.98,211.146C485.657,200.467 473.019,195.127 458.068,195.127Z" style="fill:white;fill-rule:nonzero;"/>
        </g>
    </g>
</svg>
